<svg xmlns="http://www.w3.org/2000/svg" style="display:none">
  <symbol id="icon-clean" viewBox="0 0 24 24" fill="none" stroke="currentColor" stroke-width="1.5" stroke-linecap="round" stroke-linejoin="round">
    <path d="M3 6h10"/>
    <path d="M6 6v9a3 3 0 0 0 3 3h1a3 3 0 0 0 3-3"/>
    <path d="M10 6V4a2 2 0 0 1 2-2"/>
    <path d="M14 2l5 5"/>
    <path d="M19 7l-5-5"/>
  </symbol>

  <symbol id="icon-analyze" viewBox="0 0 24 24" fill="none" stroke="currentColor" stroke-width="1.5" stroke-linecap="round" stroke-linejoin="round">
    <path d="M21.21 15.89A10 10 0 1 1 8 2.83"/>
    <path d="M22 12A10 10 0 0 0 12 2v10z"/>
  </symbol>

  <symbol id="icon-status" viewBox="0 0 24 24" fill="none" stroke="currentColor" stroke-width="1.5" stroke-linecap="round" stroke-linejoin="round">
    <rect x="2" y="3" width="20" height="6" rx="1"/>
    <rect x="2" y="15" width="20" height="6" rx="1"/>
    <path d="M6 6v.01"/>
    <path d="M6 18v.01"/>
  </symbol>

  <symbol id="icon-uninstall" viewBox="0 0 24 24" fill="none" stroke="currentColor" stroke-width="1.5" stroke-linecap="round" stroke-linejoin="round">
    <path d="M3 6h18"/>
    <path d="M19 6v14a2 2 0 0 1-2 2H7a2 2 0 0 1-2-2V6"/>
    <path d="M8 6V4a2 2 0 0 1 2-2h4a2 2 0 0 1 2 2v2"/>
  </symbol>

  <symbol id="icon-optimize" viewBox="0 0 24 24" fill="none" stroke="currentColor" stroke-width="1.5" stroke-linecap="round" stroke-linejoin="round">
    <path d="M13 2L3 14h9l-1 8 10-12h-9l1-8z"/>
  </symbol>

  <symbol id="icon-purge" viewBox="0 0 24 24" fill="none" stroke="currentColor" stroke-width="1.5" stroke-linecap="round" stroke-linejoin="round">
    <path d="M2 6a2 2 0 0 1 2-2h4l2 2h8a2 2 0 0 1 2 2v1"/>
    <path d="M2 12h18a2 2 0 0 1 2 2v2a2 2 0 0 1-2 2H4a2 2 0 0 1-2-2v-4z"/>
  </symbol>

  <symbol id="icon-installer" viewBox="0 0 24 24" fill="none" stroke="currentColor" stroke-width="1.5" stroke-linecap="round" stroke-linejoin="round">
    <path d="M12 2L2 7l10 5 10-5-10-5z"/>
    <path d="M2 17l10 5 10-5"/>
    <path d="M2 12l10 5 10-5"/>
  </symbol>

  <symbol id="icon-settings" viewBox="0 0 24 24" fill="none" stroke="currentColor" stroke-width="1.5" stroke-linecap="round" stroke-linejoin="round">
    <circle cx="12" cy="12" r="3"/>
    <path d="M19.4 15a1.65 1.65 0 0 0 .33 1.82l.06.06a2 2 0 1 1-2.83 2.83l-.06-.06a1.65 1.65 0 0 0-1.82-.33 1.65 1.65 0 0 0-1 1.51V21a2 2 0 1 1-4 0v-.09A1.65 1.65 0 0 0 9 19.4a1.65 1.65 0 0 0-1.82.33l-.06.06a2 2 0 1 1-2.83-2.83l.06-.06A1.65 1.65 0 0 0 4.68 15a1.65 1.65 0 0 0-1.51-1H3a2 2 0 1 1 0-4h.09A1.65 1.65 0 0 0 4.6 9a1.65 1.65 0 0 0-.33-1.82l-.06-.06a2 2 0 1 1 2.83-2.83l.06.06A1.65 1.65 0 0 0 9 4.68a1.65 1.65 0 0 0 1-1.51V3a2 2 0 1 1 4 0v.09a1.65 1.65 0 0 0 1 1.51 1.65 1.65 0 0 0 1.82-.33l.06-.06a2 2 0 1 1 2.83 2.83l-.06.06A1.65 1.65 0 0 0 19.4 9a1.65 1.65 0 0 0 1.51 1H21a2 2 0 1 1 0 4h-.09a1.65 1.65 0 0 0-1.51 1z"/>
  </symbol>

  <symbol id="icon-theme" viewBox="0 0 24 24" fill="none" stroke="currentColor" stroke-width="1.5" stroke-linecap="round" stroke-linejoin="round">
    <circle cx="12" cy="12" r="5"/>
    <path d="M12 1v2"/>
    <path d="M12 21v2"/>
    <path d="M4.22 4.22l1.42 1.42"/>
    <path d="M18.36 18.36l1.42 1.42"/>
    <path d="M1 12h2"/>
    <path d="M21 12h2"/>
    <path d="M4.22 19.78l1.42-1.42"/>
    <path d="M18.36 5.64l1.42-1.42"/>
  </symbol>

  <symbol id="icon-language" viewBox="0 0 24 24" fill="none" stroke="currentColor" stroke-width="1.5" stroke-linecap="round" stroke-linejoin="round">
    <circle cx="12" cy="12" r="10"/>
    <path d="M2 12h20"/>
    <path d="M12 2a15.3 15.3 0 0 1 4 10 15.3 15.3 0 0 1-4 10 15.3 15.3 0 0 1-4-10 15.3 15.3 0 0 1 4-10z"/>
  </symbol>

  <symbol id="icon-auto-launch" viewBox="0 0 24 24" fill="none" stroke="currentColor" stroke-width="1.5" stroke-linecap="round" stroke-linejoin="round">
    <path d="M12 2v4"/>
    <path d="M12 18v4"/>
    <path d="M4.93 4.93l2.83 2.83"/>
    <path d="M16.24 16.24l2.83 2.83"/>
    <path d="M2 12h4"/>
    <path d="M18 12h4"/>
    <path d="M4.93 19.07l2.83-2.83"/>
    <path d="M16.24 7.76l2.83-2.83"/>
  </symbol>

  <symbol id="icon-update" viewBox="0 0 24 24" fill="none" stroke="currentColor" stroke-width="1.5" stroke-linecap="round" stroke-linejoin="round">
    <path d="M21 12a9 9 0 0 1-9 9"/>
    <path d="M3 12a9 9 0 0 1 9-9"/>
    <path d="M21 3v9h-9"/>
    <path d="M3 21v-9h9"/>
  </symbol>

  <symbol id="icon-about" viewBox="0 0 24 24" fill="none" stroke="currentColor" stroke-width="1.5" stroke-linecap="round" stroke-linejoin="round">
    <circle cx="12" cy="12" r="10"/>
    <path d="M12 16v-4"/>
    <path d="M12 8h.01"/>
  </symbol>

  <symbol id="icon-acknowledgments" viewBox="0 0 24 24" fill="none" stroke="currentColor" stroke-width="1.5" stroke-linecap="round" stroke-linejoin="round">
    <path d="M20.84 4.61a5.5 5.5 0 0 0-7.78 0L12 5.67l-1.06-1.06a5.5 5.5 0 0 0-7.78 7.78l1.06 1.06L12 21.23l7.78-7.78 1.06-1.06a5.5 5.5 0 0 0 0-7.78z"/>
  </symbol>
</svg>
